<?xml version="1.0" encoding="utf-8"?>
<!-- Generator: Adobe Illustrator 24.2.0, SVG Export Plug-In . SVG Version: 6.00 Build 0)  -->
<svg version="1.1" id="Layer_1" xmlns="http://www.w3.org/2000/svg" xmlns:xlink="http://www.w3.org/1999/xlink" x="0px" y="0px"
	 viewBox="0 0 1024 1024" style="enable-background:new 0 0 1024 1024;" xml:space="preserve">
<style type="text/css">
	.st0{fill:#FF7F00;}
	.st1{fill:#FFFFFF;}
</style>
<g>
	<g>
		<path class="st0" d="M421.05,8.44c88.02-15.87,180.2-8.43,264.39,21.9c72.18,25.91,138.32,68.39,191.99,123.17
			c50.67,51.51,90.32,113.86,115.22,181.71c19.66,53.15,30.04,109.61,31.35,166.23v21.1c-1.15,48.96-8.95,97.83-23.85,144.51
			c-23.53,74.41-64.56,143.18-118.64,199.42c-51.83,54.03-115.6,96.61-185.53,123.42c-42.95,16.5-88.15,27.22-133.97,31.54
			c-12.64,1.29-25.34,1.78-38.01,2.56h-23.31c-26.51-1.29-53.08-3.26-79.21-8.19c-55.53-9.86-109.34-29.16-158.56-56.68
			C203.03,925.71,150,880.09,107.95,825.92C59.74,764.01,26.03,690.86,10.63,613.9C-5.18,535.74-2.5,453.91,18.52,376.98
			c16.97-62.46,46.13-121.54,85.17-173.16c32.42-42.92,71.62-80.71,115.72-111.51C279.51,50.23,348.81,21.33,421.05,8.44z
			 M514.14,68.39c0.36,8.2,0.44,16.41,0.6,24.62c0.78,9.84,0.9,19.74,0.81,29.61c-11.27-17.68-22.62-35.32-33.74-53.09
			c-5.85-0.08-11.7,0.31-17.54,0.31c0.46,26.87,1.94,53.72,2.46,80.59c5.56-0.44,11.28,0.53,16.71-0.97
			c-1-18.09-1.16-36.22-1.95-54.33c11.55,17.78,22.87,35.71,34.34,53.54c5.83,0,11.65-0.21,17.48-0.31
			c-0.91-11.46-0.77-22.96-1.13-34.44c-0.97-9.6-0.44-19.28-1.02-28.9c-0.69-5.74-0.37-11.54-0.64-17.31
			C525.05,67.78,519.6,68.2,514.14,68.39z M565.93,82.9c-9.45,8.68-13.52,21.68-14.3,34.17c-0.57,9.45,1.57,19.28,7.22,27
			c6.89,9.87,19.35,14.85,31.15,14.36c6.48-0.2,12.32-3.39,17.25-7.37c-0.02,3.16,0.03,6.32,0.16,9.48
			c3.61,0.73,7.23,1.45,10.86,2.12c2.86-14.31,5.45-28.66,8.25-42.98c-11.01-1.88-21.93-4.2-32.9-6.27
			c-0.74,4.61-1.92,9.15-2.44,13.79c5.92,1.01,11.81,2.15,17.69,3.42c-1.34,3.44-3.27,6.71-6.14,9.09c-9.4,8.4-26.2,4.24-31.38-7.03
			c-3.92-8.34-2.84-17.97-0.15-26.5c2.19-6.64,6.29-13.2,12.84-16.23c6.48-2.87,14.1-1.4,20.15,1.88c4.79,2.62,7.42,7.95,7.7,13.28
			c5.56,0.83,11.01,2.37,16.63,2.9c0.65-8.42-2.47-17.02-8.55-22.91c-6.77-6.47-15.97-9.87-25.15-11.02
			C584.52,72.53,573.5,75.65,565.93,82.9z M676.92,95.07c2.31,0.97,4.57,2.17,7.02,2.8c4.68-1.82,8.95-4.57,13.44-6.83
			c1.45,4.83,2.6,9.76,4.13,14.58c2.36,0.99,4.71,2.02,7.05,3.09c-0.54-7.71-0.86-15.48-1.92-23.13c-3.97-1.66-7.93-3.33-11.82-5.14
			C688.91,85.39,682.71,89.98,676.92,95.07z M377.07,88.72c5.64,17.23,12.35,34.13,17.64,51.45
			c-16.16-13.59-32.19-27.32-48.47-40.77c-5.27,2.16-10.8,3.6-16.07,5.75c0.24,1.63,0.8,3.18,1.35,4.73
			c8.31,23.58,16.48,47.23,24.81,70.8c5.34-0.39,10.34-3.42,15.58-4.73c-5.34-17.39-12.2-34.32-17.65-51.68
			c15.55,12.95,31.04,25.95,46.5,39.01c0.94,0.7,1.99,1.9,3.32,1.27c5.09-1.53,10.08-3.43,15.05-5.35
			c-8.78-25.36-17.58-50.73-26.64-75.98C387.39,85.17,382.2,86.87,377.07,88.72z M667.51,117.42
			c-14.52,15.53-28.79,31.3-43.42,46.71c5.58,2.17,10.86,5.12,16.62,6.81c3.37-4.03,6.82-8,10.3-11.93
			c0.98-1.59,2.59-0.06,3.85,0.28c8.46,3.91,17.25,7.09,25.6,11.25c-0.78,4.49-0.88,9.06-1.4,13.59c-0.31,1.36-0.06,2.71,0.49,3.98
			c5.34,1.6,10.08,4.77,15.53,6.03c1.32-28.44,3.59-56.81,4.69-85.25c-5.7-2.52-11.52-4.74-17.11-7.48
			C677.21,106.36,672.63,112.15,667.51,117.42z M259.58,116.1c0.24,7.7,0.98,15.37,1.25,23.07c2.28-1.23,4.48-2.58,6.65-4
			c0.77-5,1.42-10.01,2.16-15.01c4.74,1.81,9.47,3.65,14.27,5.28c1.95-1.27,4-2.37,5.92-3.69c-0.06-0.26-0.16-0.76-0.22-1.01
			c-6.19-3.83-12.55-7.4-18.68-11.33C267.08,111.54,263.37,113.89,259.58,116.1z M297.47,121.42c-14.96,9.2-30.16,18.02-45.02,27.37
			c14.01,22.85,27.79,45.85,41.6,68.83c17.34-10.4,34.7-20.78,51.91-31.39c-2.47-3.67-4.56-7.58-6.91-11.31
			c-0.64-1.48-2.28-0.67-3.24-0.09c-10.56,6.44-21.21,12.74-31.75,19.23c-1.21,0.72-2.48,1.32-3.78,1.86
			c-3.29-5.86-7.12-11.41-10.15-17.41c10.94-6.46,21.73-13.18,32.68-19.62c-2.32-4-4.73-7.95-7.15-11.88
			c-11.14,6.25-21.93,13.12-32.89,19.67c-2.98-4.75-5.86-9.56-8.72-14.38c11.76-7.41,23.86-14.29,35.61-21.71
			c-1.65-4.32-4.92-7.88-6.84-12.12C300.97,119.33,299.17,120.3,297.47,121.42z M701.07,198.58c4.57,3.12,8.9,6.62,13.71,9.38
			c3.71-5.58,7.67-10.99,11.52-16.48c6.7-9.17,12.78-18.84,19.93-27.68c-1.73,21.06-3.29,42.12-4.92,63.19
			c4.65,3.28,9.33,6.51,13.92,9.87c15.7-21.83,31.06-43.91,46.57-65.87c-4.53-3.17-8.98-6.46-13.59-9.5
			c-10.47,14.93-20.93,29.86-31.55,44.67c1.67-20.4,3.27-40.81,4.91-61.21c0.85-2.9-2.38-3.87-4.15-5.29
			c-3.46-2.17-6.45-5.1-10.24-6.7C731.98,154.95,716.33,176.63,701.07,198.58z M217.08,176.87c17.06,20.72,34.01,41.52,51.03,62.27
			c4.39-3.33,8.49-7.01,12.86-10.36c-1.81-3.02-4.27-5.57-6.45-8.31c-14.8-18.12-29.68-36.17-44.43-54.33
			C225.8,169.77,221.37,173.24,217.08,176.87z M567.06,194c-7.3,8.71-13.99,18.51-24.21,24.07c-2.45,1.39-5.93,2.6-8.34,0.56
			c-2.51-1.68-4.66-5.4-8.17-4.12c-4.63,2.51-3.53,9.44-8.06,12.06c-7.44-4.3-14.78-9.41-23.36-11.05
			c-4.06-0.93-6.64,2.88-8.67,5.72c-1.93,2.61-4.25,6.56-8.12,5.36c-5.47-2.53-9.01-8.29-15.08-9.79
			c-7.07-1.47-13.69,3.46-17.41,9.07c-1.75,3.02-3.72,6.47-2.88,10.08c3.5,6.67,8.51,12.38,12.7,18.61
			c2.27,3.11,4.05,6.93,7.66,8.72c3.01,0.55,6.1,0.65,9.08,1.42c2.59,3.75-0.54,7.98-1.68,11.69c-1.95,3.83-0.37,8.17,1.34,11.77
			c4.96,9.68,13.78,16.6,22.75,22.39c3.26,1.91,7.1,4.31,11.01,2.94c5.19-4.52,8.86-11.12,15.48-13.83c3.42-1.46,7.08,0.2,9.33,2.87
			c3.54,3.97,7.98,6.92,12.14,10.18c1.98,1.18,1.75,4.48-0.53,5.19c-1.99,1.59-6.45,2.19-5.55,5.6c3.37,4.12,8.51,6.13,12.6,9.41
			c3.47,2.58,6.97,6.36,6.47,11.03c-0.66,6.22-4.09,11.86-8.12,16.5c-1.02,0.8-1.95,2.46-3.47,1.9c-4.69-1.16-9.12-3.38-13.98-3.78
			c-2.26-0.25-4.64,1.04-5.37,3.25c-0.45,2.56,0.62,5.05,0.61,7.6c-1.02,3-4.13,4.7-5.03,7.79c5.88,1.57,11.48,4.38,15.85,8.68
			c7.05,6.98,14.03,14.03,21.05,21.04c1.7,1.74,4.16,2.39,6,3.96c1.78,1.96,2.56,4.63,4.48,6.5c27.67,27.68,55.36,55.35,83.03,83.04
			c6.63,6.67,10.19,16.17,9.81,25.54c-0.21,4.45,2.03,8.55,1.95,13.01c0.17,8.48,4,16.21,7.93,23.52c1.78,3.67,4.29,7.24,4.46,11.45
			c0.39,4.38-0.73,8.67-1.45,12.95c-1.93,12.54-2.32,25.32-0.72,37.92c27.32-1.99,54.79,1.74,81.21,8.65
			c-0.34-3.92-1.4-7.7-2.26-11.52c-4.07-16.1-8.13-32.23-13.26-48.04c-2.41-8.13-7.52-15.06-12.27-21.95
			c-5.69-8.33-12.26-16.07-17.11-24.93c-1.33-2.25-3.16-4.12-5.13-5.78c-5.92-5.1-12.31-9.72-17.41-15.68
			c-17.58-19.39-34.7-39.25-53.24-57.73c-3.6-7.87-9.51-14.32-15.71-20.23c-8.17-7.92-16.17-16.27-21.69-26.32
			c-1.19-2.25-2.48-4.59-2.46-7.21c-0.61-9.4,2.57-18.45,5.41-27.26c1.92-5.45,3.64-11.21,7.32-15.77
			c5.42-5.19,13.17-7.09,18.48-12.46c7.16-6.89,9.26-16.95,13.35-25.64c3.41-7.55,11.62-10.71,18.23-14.81
			c5.28-2.88,9.53-7.18,13.96-11.17c4.63-4.32,9.61-8.28,13.87-13c-0.28-1.2-0.53-2.52-1.92-2.83c-5-2.43-10.75-2.11-15.9-4.02
			c-8.23-2.96-16-7.08-23.29-11.88c-2.73-1.97-5.93-3.95-6.9-7.39c-1.42-4.47-2.51-9.14-2.35-13.86c0.13-5.49,4.52-9.61,5.38-14.94
			c1-2.62,0.46-6.42-2.67-7.21c-10.81-2.91-22.19-2.35-33.17-4.13c-11.18-3.51-17.36-14.32-26.14-21.26
			C572.74,187.59,569.82,190.88,567.06,194z M201.29,189.01c-3.77,4.51-8.02,8.59-11.9,13c-0.17,1.77,1.42,3.08,2.13,4.58
			c9.85,16.34,19.83,32.61,29.56,49.03c-16.14-8.11-32.2-16.36-48.36-24.42c-2.47-1.2-4.77-3.01-7.61-3.13
			c-3.67,4.65-7.98,8.74-12.01,13.07c25.96,11.68,52.14,22.85,78.14,34.44c3.4-4.01,7.27-7.61,10.56-11.7
			c-0.47-1.9-1.59-3.54-2.48-5.26C226.52,235.49,214.36,211.99,201.29,189.01z M315.12,211.75c3,4.6,5.68,9.41,8.67,14.02
			c4.68-2.95,9.4-5.84,14.17-8.64c-2.78-4.67-5.72-9.25-8.35-14.02C324.46,205.35,319.72,208.55,315.12,211.75z M790.13,270.07
			c3.12,4.67,6.78,8.93,10.05,13.49c9.41-6.86,18.52-14.15,27.82-21.15c1.3-0.16,1.77,1.32,2.55,2.09
			c6,7.85,11.92,15.77,18.07,23.52c-9.39,7.37-19.01,14.45-28.38,21.85c3.71,4.25,6.65,9.14,10.6,13.18
			c21.14-16.46,42.59-32.51,63.75-48.94c-3.61-4.32-6.63-9.11-10.48-13.21c-7.72,6.06-15.69,11.81-23.3,18.01
			c-5.17-5.83-9.53-12.33-14.4-18.4c-1.85-2.69-4.42-4.97-5.47-8.12c7.87-5.68,15.39-11.83,23.21-17.57
			c-2.97-4.82-6.76-9.05-10.12-13.6C832.72,237.5,811.46,253.84,790.13,270.07z M121.83,300.79c-10.09,3.41-16.81,12.68-20.83,22.13
			c-4.27,9.31-5.48,20.59-0.97,30.05c4.35,9.53,13.12,16.15,22.27,20.73c10.04,5.11,21.82,8.3,32.98,5.32
			c10.35-2.44,18.17-10.88,22.57-20.22c5.6-10.85,6.83-24.88-0.21-35.39c-2.95-3.87-6.46-8.09-11.34-9.4
			c-2.11,4.81-4.58,9.46-6.93,14.16c4.54,3.56,8.28,8.91,7.74,14.94c-1.14,8.1-6,16.48-14.15,19.12c-9.74,2.3-19.64-1.25-27.78-6.52
			c-6.85-4.04-12.92-11.16-12.35-19.55c0.98-6.96,4.21-14.12,10.16-18.17c3.86-2.67,8.8-1.8,13.15-1.23
			c2.31-4.95,5.41-9.62,6.84-14.93C136.23,299.53,128.7,298.25,121.83,300.79z M941.25,304.28c-3.2,6.79-6.15,13.71-9.36,20.5
			c-2.1,3.42,1.1,6.73,2.2,9.88c4.67-6.13,9.24-12.34,13.83-18.53c-1.88-3.96-3.67-7.97-5.58-11.92
			C942.07,304.23,941.52,304.26,941.25,304.28z M835.05,328.93c1.84,5.52,4.91,10.52,7.15,15.89c5.73-0.35,11.41-1.29,17.08-2.21
			c4.82,9.28,9.15,18.81,13.49,28.32c-4.33,3.83-8.51,7.81-12.59,11.9c2.38,5.04,4.96,9.99,7.1,15.15c1.17-0.23,2.14-0.91,2.92-1.79
			c9.7-9.97,19.78-19.55,29.33-29.65c9.43-9.55,19.13-18.85,28.37-28.56c-1.98-6.06-5.58-11.46-7.84-17.42
			C891.72,323.29,863.41,326.35,835.05,328.93z M931.95,390.79c-20.65,4.79-41.27,9.72-61.91,14.54c0.36,5.56,2.07,10.93,3.49,16.29
			c7.52-1.97,15.09-3.74,22.68-5.44c10.07-2.11,19.94-5.2,30.1-6.86c-15.06,14.6-30.06,29.27-45.3,43.69
			c0.93,5.69,2.48,11.24,3.66,16.88c11.24-1.91,22.2-5.24,33.36-7.6c14.99-3.46,29.92-7.16,44.94-10.51
			c-0.81-5.5-2.31-10.87-3.65-16.26c-17.72,4.41-35.56,8.29-53.26,12.74c15.12-14.88,30.61-29.39,45.81-44.18
			c-1.04-5.69-2.56-11.26-3.8-16.9C942.6,387.91,937.32,389.59,931.95,390.79z M99.54,388.91c-10.68,0.98-21.15,6.41-27.02,15.56
			c-6.31,9.64-8.51,21.66-6.76,32.98c2.15,10.34,9.31,19.32,18.58,24.25c10.22,5.37,22.02,7.98,33.54,6.68
			c9.99-1.4,19.66-6.79,25.17-15.4c5.51-8.51,7.83-18.94,7.2-29c-0.87-11.92-8.67-22.55-19.03-28.17
			C121.57,390.73,110.45,388.14,99.54,388.91z M512.18,393.15c-5.05-0.33-9.82,2.06-13.22,5.67
			c-37.69,37.71-75.41,75.39-113.09,113.11c-6.66,6.42-6.99,17.98-0.5,24.64c38.14,38.21,76.34,76.36,114.52,114.54
			c6.41,6.51,17.88,6.62,24.47,0.29c38.19-38.16,76.37-76.35,114.54-114.54c7.04-6.9,6.28-19.25-0.94-25.75
			c-37.54-37.48-75.04-75.01-112.55-112.53C521.95,395.08,517.15,392.87,512.18,393.15z M154.01,431.11
			c-0.79,5.25-2.27,10.36-3.6,15.48c5.23,1.85,10.8,2.47,16.1,4.11c1.58-5.32,2.67-10.76,4.07-16.13
			C165.11,433.22,159.66,431.52,154.01,431.11z M895.35,493.37c-9.09,8.43-12.06,21.99-9.5,33.85c1.42,6.54,5.68,12.02,10.79,16.16
			c-3.03,0.67-6.09,1.27-9.06,2.17c0.07,3.66,0.05,7.34,0.05,11.01c14.57-0.1,29.15-0.31,43.72-0.34
			c-0.18-11.21-0.03-22.43-0.57-33.63c-4.5,0.09-9.01,0.21-13.51,0.1c-0.99,6.07,0.4,12.17,0.01,18.28
			c-5.78-0.68-11.35-3.7-14.5-8.67c-5.5-8.9-3.42-22.15,5.51-28.07c7.73-5.23,17.72-6.11,26.75-4.72
			c6.98,0.92,14.25,4.19,17.87,10.53c3.51,6.43,3.43,14.58,0.27,21.12c-2.08,4.05-6.2,6.45-10.41,7.74
			c-0.03,5.6-0.01,11.21-0.02,16.82c8.28-0.75,16.17-5.27,20.74-12.26c5.93-8.54,6.95-19.41,6.01-29.5
			c-0.9-8.7-5.05-17.09-11.84-22.69c-8.61-7.49-20.46-9.99-31.6-9.68S903.35,485.28,895.35,493.37z M835.88,489.08
			c-1.44,4.49,0.05,9.32-1.23,13.87c0.67-0.13,1.99-0.39,2.65-0.52c1.34-1.79,2.34-3.8,2.93-5.96c1.97-0.7,4.44-0.72,5.88-2.45
			c0.91-1.77,1.83-4.07,0.84-5.97C844.88,483.64,837.19,484.42,835.88,489.08z M56.58,487.27c0.11,5.67-0.22,11.34-0.09,17.01
			c10.02,0,20.03-0.05,30.05,0.03c-0.24,11-0.18,22-0.22,33c-10,0.06-20.01,0.01-30.02,0.04c0.01,5.47,0.01,10.95,0,16.43
			c8.22,0.13,16.47-0.37,24.67,0.52c18.53-0.08,37.06,0.24,55.59,0.14c-0.11-5.6,0.1-11.19,0.23-16.78
			c-11.82,0.06-23.64-0.24-35.46-0.15c0.05-11.02-0.25-22.05,0.21-33.06c11.85-0.12,23.69,0.36,35.54,0.19
			c-0.17-5.63,0.7-11.39-0.5-16.92C109.92,487.67,83.24,487.51,56.58,487.27z M848.15,501.14c-2.06,3.19-4.24,6.33-5.66,9.87
			c0.36,0.6,1.07,1.81,1.43,2.41c3.05,0.48,5.99-0.64,8.52-2.28c0.17-2.54,0.06-5.19,1.23-7.53c0.53-0.14,1.6-0.42,2.13-0.56
			c-1.95-1.77-2.68-4.2-2.37-6.79C850.57,496.36,849.55,499.14,848.15,501.14z M820.21,508.81c-1.81,4.17-4.68,8.07-4.83,12.78
			c2.22-0.03,5.68,1.18,6.56-1.75c1.17-2.94,4.38-4.44,5.37-7.44c-0.25-3.12-1.57-6.09-1.72-9.24c-2.4-0.88-4.75-1.87-7.04-2.98
			C816.78,503.48,821.9,505.67,820.21,508.81z M835.23,513.66c-0.02,2.22-0.01,4.45,0.07,6.68c1.96,0.41,3.97,0.51,5.98,0.33
			c-0.6-0.71-1.21-1.42-1.81-2.12c0.92-1.93,1.57-4.41-0.1-6.13C837.91,512.61,836.54,513.02,835.23,513.66z M262.92,644.79
			c-40,11.05-77.91,28.75-118.41,38.12c4.98,10.73,10.18,21.38,16.17,31.6c10.23-2.96,20.46-5.93,30.56-9.33
			c40.74-13.61,80.78-31.03,123.77-36.24c31.89-4.26,64.21,2.84,93.86,14.47c38.13,15.07,72.28,38.61,103.36,65.08
			c27.8-23.52,57.97-44.57,91.17-59.78c28.31-13.03,59.19-21.91,90.58-21.07c29.47,1.3,58.11,9.38,85.9,18.79
			c26.64,9.14,52.91,19.47,80.1,26.92c1.51,0.07,3.97,1.51,4.87-0.41c5.36-9.84,10.56-19.8,15.08-30.07
			c-34.31-7.88-66.74-21.92-100.19-32.6c-33.08-10.68-67.76-18.71-102.74-16.65c-20.42,1.45-40.58,5.77-59.93,12.38
			c-37.36,12.78-71.68,33.23-102.99,57.08c-0.88,0.9-2.36,1.12-3.32,0.21c-18.64-14.17-38.25-27.15-59-38.05
			c-36.21-19.09-76.47-32.14-117.73-32.01C309.94,633.7,286.06,638.21,262.92,644.79z M672.4,677.47
			c-0.8,7.06-0.09,14.35-1.65,21.29c-3.68,5.23-8.69,9.93-14.89,11.95c-10.32,3.79-20.5,7.94-30.78,11.82
			c-3.24,1.34-4.68,4.88-7.39,6.91c-5.4-0.59-11.47-0.39-15.71,3.49c-3.28,2.7-2.78,7.31-2.62,11.1c0.69,10.5,9.89,18.24,10.17,28.8
			c-4.98-1.27-9.38-4.25-14.43-5.4c-6.81-2.42-14.49-2.58-21.1,0.54c-7.48,2.92-10.05,11.86-17.33,15.11
			c-7.27,2.89-15.52,2.31-22.61,5.66c0.74,5.1,5.58,8.18,10.04,9.82c7.05,2.27,13.08,6.65,19.62,9.99c0.06,0.33,0.17,0.99,0.22,1.32
			c-3.99,4.1-10.15,7.05-11.18,13.26c-0.65,13.38-4.04,26.53-4.17,39.94c-0.2,2.48,2.88,2.98,4.51,4.04
			c-0.57,2.97-4.38,2.68-6.58,3.79c0.01,0.77,0.03,1.55,0.05,2.34c10.75,1.97,22.02-2.58,28.63-11.21
			c7.06-9.61,18.06-15.03,28.88-19.26c3.22-1.49,6.99-2.64,9.11-5.67c2.08-4.34,0.69-9.26-0.62-13.58c3.26,2.91,6.69,6.86,11.42,7
			c3.03,0.21,5.3-2.69,5.66-5.45c0.35-3.27,0.12-6.57,0-9.84c2,0.9,4.19,2.05,6.45,1.28c2.92-2.68,1.91-6.94,3.06-10.35
			c0.78-3,3.74-4.54,5.33-7.02c-0.31-2.08-2.02-3.54-3.12-5.21c0.77-1.72,2.37-3.53,4.46-2.54c2.5,1.79,4.72,4.88,8.24,4.01
			c4.5-0.99,8.17-4.13,12.17-6.28c14.81-9.16,29.4-18.67,44.34-27.63c7.65-4.65,15.91-8.33,23.03-13.84
			c7.81-5.9,15.6-13.03,18.57-22.66c1.94-12.22,3.29-24.56,3.63-36.94C728.78,680.52,700.61,674.02,672.4,677.47z M857.97,740.09
			c-1.49,1.46,0.22,3.34,0.62,4.89c-0.52,0.48-1.55,1.44-2.06,1.92c0,0.96,0.01,2.88,0.01,3.84c2.13-0.19,4.3-0.25,6.42-0.68
			c1.53-1.14,2.91-2.67,3.56-4.48c0.67-2.79-1.7-4.98-3.57-6.63C861.38,737.61,858.82,738.23,857.97,740.09z M844.08,743.03
			c-3.1,2.67-5.51,6.06-7.71,9.48c-1.42,2.04-0.87,4.66-0.92,6.99c4.86,0.74,9.92-1.14,12.92-5.09c0.29-4.01,0.23-8.07-0.98-11.92
			C846.26,742.51,844.95,742.08,844.08,743.03z M745.92,757.76c-2.05,1.53-0.96,4.36-1.32,6.53c1.42,1.34,3.33,1.32,5.18,1.33
			c0.11-2.79,0.07-5.59-0.28-8.35C748.29,757.39,747.09,757.48,745.92,757.76z M848.02,762.94c-2.92,3.9-7.23,8.08-5.45,13.46
			c3.77,0.69,8.37,0.02,10.55-3.51c1.14-2.4-1.3-4.01-2.62-5.57c0.5-0.5,1.52-1.49,2.03-1.98c-0.01-1.77-0.04-3.53-0.08-5.28
			C850.81,760.74,849.06,761.42,848.02,762.94z M816.67,760.66c-0.19,2.21-0.28,4.43-0.34,6.66c1.85,1.29,4.08,1.17,6.24,1.06
			c-2-2.31-0.8-5.42-1.02-8.13C819.91,760.36,818.29,760.5,816.67,760.66z M749.57,769.85c-0.16,2.27,2.11,3.58,3.35,5.18
			c2.98-2.1,5.09-5.14,6.9-8.25c-1.71-1.43-3.61-2.61-5.93-2.35C752.45,766.24,750.82,767.89,749.57,769.85z M151.09,812.86
			c4.46,4.56,8.43,9.55,12.76,14.23c4.02,4.76,8.34,9.95,14.62,11.64c6.92,2.15,14.36-2.19,17.79-8.17
			c1.82-3.06,1.22-6.71,1.03-10.07c6.22,2.95,13.02-2.05,15.78-7.52c2.79-5.78-0.61-12.12-4.45-16.47
			c-5.8-6.46-11.33-13.17-17.37-19.41C178.07,789.24,164.31,800.75,151.09,812.86z M823.4,781.33c-2.81,2.77-5.33,5.82-8.08,8.65
			c3.33,7.61,6.5,15.28,9.68,22.96c-8.37-1.62-16.3-4.98-24.64-6.68c-2.65,3.53-6.48,6.13-8.56,10.07
			c11.21,2.59,22.45,5.06,33.72,7.42c1.91,0.44,4.04,0.7,5.4,2.3c4.28,4.14,8.76,8.06,13.16,12.06c2.64-2.67,5.18-5.42,7.73-8.17
			c-4.91-4.7-10.26-8.93-14.86-13.92c-4.46-11.51-8.33-23.26-12.69-34.81C824.05,781.24,823.62,781.3,823.4,781.33z M494.77,797.8
			c0.55,3.6,5.2,5.37,3.96,9.44c3.4,3.21,1.62,8.19,1.88,12.28c1.35,0.19,2.87,0.4,3.58-1.09c3.99-5.63,7.47-11.78,9.26-18.48
			c-1.03-2.35-3.25-3.67-4.94-5.44c-1.38-1.92-1.69-4.7-3.97-5.84C499.31,786.72,493.61,792.58,494.77,797.8z M784.47,822.46
			c-2.53,2.26-5.32,4.22-7.76,6.58c-0.43,1.9,1.38,3.57,1.97,5.35c5.07,10.81,10.47,21.48,15.24,32.43
			c-10.44-7.5-20.94-14.91-31.36-22.43c-0.91-0.59-1.96-1.66-3.11-0.97c-3.3,2.34-6.16,5.25-9.41,7.68
			c-0.98,0.82-2.89,2.05-1.46,3.44c10.53,12.77,21.23,25.41,31.77,38.18c0.55,1.12,2.17,1.65,3.12,0.66c2.2-1.9,4.65-3.55,6.54-5.78
			c-8.98-10.44-17.65-21.14-26.56-31.63c7.94,5.13,15.39,11,23.13,16.43c4.09,2.63,7.69,6.2,12.03,8.31c2.9-2.12,5.44-4.7,8.35-6.81
			c-2.71-7.56-6.93-14.49-10.11-21.86c-2.48-5.7-6.02-11-7.66-17.03c3.24,4.61,7.08,8.76,10.64,13.12
			c5.33,6.13,10.19,12.69,15.8,18.57c2.31-2.41,5.49-4.05,7.36-6.82c-2.95-4.83-7.25-8.8-10.67-13.33
			c-7.6-9.18-15.41-18.19-22.82-27.51C787.41,819.46,786.02,821.15,784.47,822.46z M187.32,851.61c-0.03,0.27-0.09,0.82-0.12,1.09
			c2.54,2.45,5.37,4.61,7.83,7.16c3.76-1.22,6.79-4.75,10.52-5.45c5.22,4.23,10.14,8.85,15.19,13.3c-1.57,3.49-3.08,7.01-4.54,10.55
			c2.84,2.73,5.85,5.28,8.93,7.75c6.9-17.71,13.96-35.36,20.94-53.05c-3.15-2.99-6.47-5.79-9.8-8.58
			C220.03,833.59,203.63,842.53,187.32,851.61z M264.01,848.26c-9.88,14.95-20.26,29.58-29.94,44.65c3.14,1.9,6.03,4.19,9.24,5.99
			c6.62-10.02,13.44-19.9,20.12-29.87c-0.19,14.12-1.76,28.2-2.09,42.33c3.19,2.04,6.3,4.21,9.54,6.19
			c9.89-14.92,20.07-29.64,29.99-44.53c-3.13-2.01-5.98-4.48-9.42-5.96c-6.6,9.98-13.43,19.82-20.04,29.79
			c0.28-14.12,1.84-28.18,2.25-42.3C270.41,852.5,267.32,850.2,264.01,848.26z M635.45,850.11c-2.14,4.34-4.46,8.6-6.26,13.1
			c-0.61,1.24-0.44,2.4,0.51,3.47c4.95-1.72,10-3.22,14.78-5.39c1.74-0.61,1.66-3.11,0.57-4.25
			C642.31,854.18,639.69,850.62,635.45,850.11z M707.14,878.7c9.56,15.03,18.96,30.16,28.33,45.3c2.93-1.05,5.37-3.02,8.02-4.59
			c8.78-5.43,17.45-11.06,26.33-16.34c-1.39-3.18-3.35-6.08-5.44-8.83c-8.05,5.4-16.42,10.3-24.57,15.53
			c-2.32-3.91-5.1-7.56-6.97-11.71c7.16-4.29,14.17-8.84,21.31-13.17c-1.54-2.68-2.7-5.81-5.07-7.84
			c-7.49,3.89-14.09,9.51-21.8,12.89c-1.6-3.24-4.23-5.94-5.22-9.44c7.81-4.69,15.51-9.58,23.21-14.45
			c-1.42-2.76-3.07-5.38-4.75-7.97C729.17,864.55,718.27,871.84,707.14,878.7z M309.23,878.08c-7.84,16.06-16.21,31.86-23.89,47.99
			c3.4,1.57,6.65,3.47,10.17,4.79c2.73-5.65,5.65-11.22,8.37-16.87c2.45-0.79,4.92-1.49,7.45-1.99c1.39,9.76,3.26,19.45,4.46,29.23
			c3.98,2.24,8.16,4.11,12.21,6.22c-2.05-12.99-4.15-25.97-6.45-38.91c9.42-3.34,18.84-6.7,28.4-9.62c-3.3-3.1-7.98-4.42-11.92-6.59
			c-9.44,2.96-18.54,7.04-28.08,9.69c3.05-6.42,6.36-12.7,9.49-19.07C316.01,881.39,312.76,879.42,309.23,878.08z M678.67,892.68
			c-6.43,3.09-12.98,5.93-19.4,9.03c7.4,16.1,14.96,32.13,22.28,48.28c3.74-0.44,6.87-2.71,10.28-4.1
			c7.37-3.48,15.79-6.36,20.52-13.46c4.68-7.18,3.65-16.52,0.35-24.04c-3.13-6.94-7.45-14.19-14.82-17.22
			C691.67,888.47,684.61,890,678.67,892.68z M356.85,900.37c-6.41,16.69-12.86,33.38-19.5,49.98c3.48,1.56,7.05,2.94,10.67,4.14
			c5.92-15.85,12.25-31.55,18.32-47.35c0.29-0.99,0.48-1.99,0.57-3.01C363.5,903.02,360.2,901.62,356.85,900.37z M377.73,908.94
			c-4.93,17.14-9.63,34.34-14.56,51.47c3.45,1.13,6.99,2.01,10.43,3.21c4.08-11.36,6.07-23.41,10.41-34.68
			c3.29,13.53,7.29,26.88,10.67,40.39c3.76,1.13,7.5,2.32,11.34,3.18c4.62-17.29,9.64-34.48,14.46-51.71
			c-3.59-1.01-7.16-2.08-10.8-2.84c-2.99,11.49-6.54,22.83-9.57,34.31c-4.47-13.21-7.25-26.96-11.1-40.37
			C385.24,910.96,381.54,909.74,377.73,908.94z M624.51,913.31c-0.31,12.91-1.26,25.8-1.23,38.72c-0.41,6.08-0.88,12.15-0.77,18.26
			c3.57-1.2,7.12-2.54,10.85-3.18c0.68-3.87,0.31-7.81,0.26-11.69c6.5-2.52,13.23-4.49,19.97-6.27c2.07,2.99,4.24,5.93,6.33,8.92
			c3.9-0.53,7.55-2.02,11.3-3.14c-10.95-15.5-23.03-30.2-34.25-45.52C632.77,910.56,628.62,911.89,624.51,913.31z M576.99,923.03
			c-6.56,1.84-12.57,6.4-15.17,12.82c-3.28,8.36-2.05,17.7,0.69,26.02c2.66,7.82,9.09,14.81,17.49,16.23
			c8.33,1.28,17.38-0.78,23.94-6.2c5.1-4.34,7.22-11.29,6.5-17.83c-3.59,0.51-7.14,1.24-10.71,1.8c-0.3,3.69-1.47,7.82-4.87,9.83
			c-4.55,2.72-10.68,3.57-15.32,0.59c-4.83-3.17-6.85-9.01-7.85-14.43c-0.61-4.57-0.93-9.58,1.51-13.69
			c2.95-4.99,9.26-7.03,14.78-6.57c4.04,0.35,7.04,3.62,8.46,7.22c3.57-0.42,7.09-1.15,10.64-1.69c-0.8-6.29-5.23-11.98-11.17-14.21
			C589.87,920.51,583.09,921.26,576.99,923.03z M436.57,927.64c-5.36,3.04-8.91,8.49-10.92,14.19c-3.12,9.62-3.17,21.05,3.01,29.51
			c7.09,10.21,23.84,13.28,32.96,4.14c0.28,1.98,0.56,3.98,0.74,5.99c2.39,0.47,4.78,0.84,7.2,1.15c1.51-9.63,2.76-19.32,4.04-28.99
			c-7.35-0.99-14.71-1.84-22.02-3.06c-0.58,3.16-1.06,6.35-1.2,9.58c3.91,0.18,7.78,0.75,11.64,1.41
			c-1.38,7.12-9.69,11.62-16.45,9.04c-6.11-1.42-9.96-7.53-10.23-13.54c-0.37-6.46,0.9-13.45,5.12-18.55
			c6.29-7.86,21.89-4.62,23.05,5.97c3.71,0.56,7.43,1.11,11.19,1.4c-0.01-7.43-4.23-14.6-10.89-17.95
			C455.47,923.78,444.8,922.63,436.57,927.64z M521.83,929.59c-5.69,18.2-11.18,36.47-16.67,54.74c3.99-0.1,7.96-0.51,11.94-0.8
			c0.79-3.66,1.83-7.25,2.8-10.86c6.85-0.25,13.68-0.81,20.53-1.05c1.48,3.6,2.84,7.24,4.28,10.86c3.9-0.06,7.81-0.18,11.67-0.8
			c-7.24-17.46-14.51-34.9-21.68-52.39C530.41,929.29,526.12,929.51,521.83,929.59z"/>
	</g>
	<path class="st0" d="M662.2,146.24c7.29-8.68,15.06-16.98,22.3-25.72c-0.66,11.79-1.87,23.54-3.02,35.3
		c-6.37-2.8-12.77-5.53-19.17-8.25C662.28,147.24,662.22,146.58,662.2,146.24z"/>
	<path class="st0" d="M581.52,292.69c2.69-7.02,4.65-14.32,7.62-21.23c2.62,7.02,4.81,14.19,7.4,21.22c7.4,0.07,14.8-0.11,22.2,0.11
		c-5.88,4.65-11.79,9.26-17.64,13.95c2.1,7.09,4.87,13.99,6.55,21.2c-6.2-4.17-12.35-8.4-18.59-12.51
		c-6.22,4.27-12.55,8.39-18.8,12.61c1.79-7.31,4.98-14.22,6.59-21.59c-5.82-4.41-11.67-8.82-17.23-13.55
		C566.91,292.44,574.22,292.8,581.52,292.69z"/>
	<path class="st0" d="M874.05,340.71c11.66-1.21,23.26-2.93,34.89-4.32c-8.43,8.17-17.06,16.12-25.51,24.26
		C880.13,354.09,876.84,347.51,874.05,340.71z"/>
	<path class="st0" d="M98.08,405.97c7.13-1.14,14.38,0.53,21.12,2.83c7.52,2.8,14.79,8.76,16.11,17.08
		c0.96,8.01-1.64,17.15-8.51,21.94c-6.06,4.19-13.84,4.49-20.88,3.34c-8.13-1.55-16.63-4.5-21.96-11.2
		c-4.74-5.37-4.46-13.28-2.72-19.78C83.35,412.55,90.28,406.92,98.08,405.97z"/>
	<path class="st0" d="M183.1,798.91c2.8-2.5,5.44-5.24,8.7-7.16c2.97,3.82,6.49,7.17,9.39,11.03c1.29,1.52,1.33,3.52,1.43,5.42
		c-1.77,2.31-4.7,4.72-7.73,3.04C190.12,808.04,187.14,802.91,183.1,798.91z"/>
	<path class="st0" d="M166.46,813.63c3.03-3.02,6.48-5.57,9.59-8.5c2.78,3.16,5.5,6.37,8.36,9.46c1.3,1.65,2.95,3.33,3.21,5.52
		c1.02,5.48-6.65,10.12-10.86,6.14c-3.87-3.47-7.1-7.63-10.54-11.51C166.28,814.46,166.4,813.9,166.46,813.63z"/>
	<path class="st0" d="M214.03,848.94c6.43-4.09,13.1-7.81,19.65-11.71c-2.76,7.23-6.21,14.19-9.03,21.4
		C221.12,855.39,217.09,852.63,214.03,848.94z"/>
	<path class="st0" d="M673.34,905.83c5.88-2.28,11.57-7.03,18.25-5.33c5.43,1.93,8.22,7.47,10.51,12.36
		c1.97,4.56,3.77,10.31,0.62,14.8c-3.46,5.02-9.81,6.59-14.99,9.22C682.9,926.54,678.14,916.17,673.34,905.83z"/>
	<path class="st0" d="M633.73,945.11c-0.1-7.72,0.49-15.41,0.58-23.11c4.18,6.55,8.98,12.68,13.37,19.1
		C643.04,942.47,638.5,944.23,633.73,945.11z"/>
	<path class="st0" d="M528.84,940.87c2.64,7.24,5.49,14.4,8.14,21.64c-4.82,0.24-9.64,0.47-14.45,0.85
		C524.51,955.83,526.41,948.27,528.84,940.87z"/>
</g>
<g>
	<path class="st1" d="M514.14,68.39c5.46-0.19,10.91-0.61,16.38-0.68c0.27,5.77-0.05,11.57,0.64,17.31
		c0.58,9.62,0.05,19.3,1.02,28.9c0.36,11.48,0.22,22.98,1.13,34.44c-5.83,0.1-11.65,0.31-17.48,0.31
		c-11.47-17.83-22.79-35.76-34.34-53.54c0.79,18.11,0.95,36.24,1.95,54.33c-5.43,1.5-11.15,0.53-16.71,0.97
		c-0.52-26.87-2-53.72-2.46-80.59c5.84,0,11.69-0.39,17.54-0.31c11.12,17.77,22.47,35.41,33.74,53.09
		c0.09-9.87-0.03-19.77-0.81-29.61C514.58,84.8,514.5,76.59,514.14,68.39z"/>
	<path class="st1" d="M565.93,82.9c7.57-7.25,18.59-10.37,28.89-8.82c9.18,1.15,18.38,4.55,25.15,11.02
		c6.08,5.89,9.2,14.49,8.55,22.91c-5.62-0.53-11.07-2.07-16.63-2.9c-0.28-5.33-2.91-10.66-7.7-13.28
		c-6.05-3.28-13.67-4.75-20.15-1.88c-6.55,3.03-10.65,9.59-12.84,16.23c-2.69,8.53-3.77,18.16,0.15,26.5
		c5.18,11.27,21.98,15.43,31.38,7.03c2.87-2.38,4.8-5.65,6.14-9.09c-5.88-1.27-11.77-2.41-17.69-3.42c0.52-4.64,1.7-9.18,2.44-13.79
		c10.97,2.07,21.89,4.39,32.9,6.27c-2.8,14.32-5.39,28.67-8.25,42.98c-3.63-0.67-7.25-1.39-10.86-2.12
		c-0.13-3.16-0.18-6.32-0.16-9.48c-4.93,3.98-10.77,7.17-17.25,7.37c-11.8,0.49-24.26-4.49-31.15-14.36
		c-5.65-7.72-7.79-17.55-7.22-27C552.41,104.58,556.48,91.58,565.93,82.9z"/>
	<path class="st1" d="M676.92,95.07c5.79-5.09,11.99-9.68,17.9-14.63c3.89,1.81,7.85,3.48,11.82,5.14
		c1.06,7.65,1.38,15.42,1.92,23.13c-2.34-1.07-4.69-2.1-7.05-3.09c-1.53-4.82-2.68-9.75-4.13-14.58c-4.49,2.26-8.76,5.01-13.44,6.83
		C681.49,97.24,679.23,96.04,676.92,95.07z"/>
	<path class="st1" d="M377.07,88.72c5.13-1.85,10.32-3.55,15.42-5.5c9.06,25.25,17.86,50.62,26.64,75.98
		c-4.97,1.92-9.96,3.82-15.05,5.35c-1.33,0.63-2.38-0.57-3.32-1.27c-15.46-13.06-30.95-26.06-46.5-39.01
		c5.45,17.36,12.31,34.29,17.65,51.68c-5.24,1.31-10.24,4.34-15.58,4.73c-8.33-23.57-16.5-47.22-24.81-70.8
		c-0.55-1.55-1.11-3.1-1.35-4.73c5.27-2.15,10.8-3.59,16.07-5.75c16.28,13.45,32.31,27.18,48.47,40.77
		C389.42,122.85,382.71,105.95,377.07,88.72z"/>
	<g>
		<path class="st1" d="M667.51,117.42c5.12-5.27,9.7-11.06,15.15-16.01c5.59,2.74,11.41,4.96,17.11,7.48
			c-1.1,28.44-3.37,56.81-4.69,85.25c-5.45-1.26-10.19-4.43-15.53-6.03c-0.55-1.27-0.8-2.62-0.49-3.98c0.52-4.53,0.62-9.1,1.4-13.59
			c-8.35-4.16-17.14-7.34-25.6-11.25c-1.26-0.34-2.87-1.87-3.85-0.28c-3.48,3.93-6.93,7.9-10.3,11.93
			c-5.76-1.69-11.04-4.64-16.62-6.81C638.72,148.72,652.99,132.95,667.51,117.42z M662.2,146.24c0.02,0.34,0.08,1,0.11,1.33
			c6.4,2.72,12.8,5.45,19.17,8.25c1.15-11.76,2.36-23.51,3.02-35.3C677.26,129.26,669.49,137.56,662.2,146.24z"/>
	</g>
	<path class="st1" d="M259.58,116.1c3.79-2.21,7.5-4.56,11.35-6.69c6.13,3.93,12.49,7.5,18.68,11.33c0.06,0.25,0.16,0.75,0.22,1.01
		c-1.92,1.32-3.97,2.42-5.92,3.69c-4.8-1.63-9.53-3.47-14.27-5.28c-0.74,5-1.39,10.01-2.16,15.01c-2.17,1.42-4.37,2.77-6.65,4
		C260.56,131.47,259.82,123.8,259.58,116.1z"/>
	<path class="st1" d="M297.47,121.42c1.7-1.12,3.5-2.09,5.35-2.95c1.92,4.24,5.19,7.8,6.84,12.12
		c-11.75,7.42-23.85,14.3-35.61,21.71c2.86,4.82,5.74,9.63,8.72,14.38c10.96-6.55,21.75-13.42,32.89-19.67
		c2.42,3.93,4.83,7.88,7.15,11.88c-10.95,6.44-21.74,13.16-32.68,19.62c3.03,6,6.86,11.55,10.15,17.41c1.3-0.54,2.57-1.14,3.78-1.86
		c10.54-6.49,21.19-12.79,31.75-19.23c0.96-0.58,2.6-1.39,3.24,0.09c2.35,3.73,4.44,7.64,6.91,11.31
		c-17.21,10.61-34.57,20.99-51.91,31.39c-13.81-22.98-27.59-45.98-41.6-68.83C267.31,139.44,282.51,130.62,297.47,121.42z"/>
	<path class="st1" d="M701.07,198.58c15.26-21.95,30.91-43.63,46.11-65.62c3.79,1.6,6.78,4.53,10.24,6.7c1.77,1.42,5,2.39,4.15,5.29
		c-1.64,20.4-3.24,40.81-4.91,61.21c10.62-14.81,21.08-29.74,31.55-44.67c4.61,3.04,9.06,6.33,13.59,9.5
		c-15.51,21.96-30.87,44.04-46.57,65.87c-4.59-3.36-9.27-6.59-13.92-9.87c1.63-21.07,3.19-42.13,4.92-63.19
		c-7.15,8.84-13.23,18.51-19.93,27.68c-3.85,5.49-7.81,10.9-11.52,16.48C709.97,205.2,705.64,201.7,701.07,198.58z"/>
	<path class="st1" d="M217.08,176.87c4.29-3.63,8.72-7.1,13.01-10.73c14.75,18.16,29.63,36.21,44.43,54.33
		c2.18,2.74,4.64,5.29,6.45,8.31c-4.37,3.35-8.47,7.03-12.86,10.36C251.09,218.39,234.14,197.59,217.08,176.87z"/>
	<g>
		<path class="st1" d="M567.06,194c2.76-3.12,5.68-6.41,9.86-7.55c8.78,6.94,14.96,17.75,26.14,21.26
			c10.98,1.78,22.36,1.22,33.17,4.13c3.13,0.79,3.67,4.59,2.67,7.21c-0.86,5.33-5.25,9.45-5.38,14.94
			c-0.16,4.72,0.93,9.39,2.35,13.86c0.97,3.44,4.17,5.42,6.9,7.39c7.29,4.8,15.06,8.92,23.29,11.88c5.15,1.91,10.9,1.59,15.9,4.02
			c1.39,0.31,1.64,1.63,1.92,2.83c-4.26,4.72-9.24,8.68-13.87,13c-4.43,3.99-8.68,8.29-13.96,11.17
			c-6.61,4.1-14.82,7.26-18.23,14.81c-4.09,8.69-6.19,18.75-13.35,25.64c-5.31,5.37-13.06,7.27-18.48,12.46
			c-3.68,4.56-5.4,10.32-7.32,15.77c-2.84,8.81-6.02,17.86-5.41,27.26c-0.02,2.62,1.27,4.96,2.46,7.21
			c5.52,10.05,13.52,18.4,21.69,26.32c6.2,5.91,12.11,12.36,15.71,20.23c18.54,18.48,35.66,38.34,53.24,57.73
			c5.1,5.96,11.49,10.58,17.41,15.68c1.97,1.66,3.8,3.53,5.13,5.78c4.85,8.86,11.42,16.6,17.11,24.93
			c4.75,6.89,9.86,13.82,12.27,21.95c5.13,15.81,9.19,31.94,13.26,48.04c0.86,3.82,1.92,7.6,2.26,11.52
			c-26.42-6.91-53.89-10.64-81.21-8.65c-1.6-12.6-1.21-25.38,0.72-37.92c0.72-4.28,1.84-8.57,1.45-12.95
			c-0.17-4.21-2.68-7.78-4.46-11.45c-3.93-7.31-7.76-15.04-7.93-23.52c0.08-4.46-2.16-8.56-1.95-13.01
			c0.38-9.37-3.18-18.87-9.81-25.54c-27.67-27.69-55.36-55.36-83.03-83.04c-1.92-1.87-2.7-4.54-4.48-6.5c-1.84-1.57-4.3-2.22-6-3.96
			c-7.02-7.01-14-14.06-21.05-21.04c-4.37-4.3-9.97-7.11-15.85-8.68c0.9-3.09,4.01-4.79,5.03-7.79c0.01-2.55-1.06-5.04-0.61-7.6
			c0.73-2.21,3.11-3.5,5.37-3.25c4.86,0.4,9.29,2.62,13.98,3.78c1.52,0.56,2.45-1.1,3.47-1.9c4.03-4.64,7.46-10.28,8.12-16.5
			c0.5-4.67-3-8.45-6.47-11.03c-4.09-3.28-9.23-5.29-12.6-9.41c-0.9-3.41,3.56-4.01,5.55-5.6c2.28-0.71,2.51-4.01,0.53-5.19
			c-4.16-3.26-8.6-6.21-12.14-10.18c-2.25-2.67-5.91-4.33-9.33-2.87c-6.62,2.71-10.29,9.31-15.48,13.83
			c-3.91,1.37-7.75-1.03-11.01-2.94c-8.97-5.79-17.79-12.71-22.75-22.39c-1.71-3.6-3.29-7.94-1.34-11.77
			c1.14-3.71,4.27-7.94,1.68-11.69c-2.98-0.77-6.07-0.87-9.08-1.42c-3.61-1.79-5.39-5.61-7.66-8.72c-4.19-6.23-9.2-11.94-12.7-18.61
			c-0.84-3.61,1.13-7.06,2.88-10.08c3.72-5.61,10.34-10.54,17.41-9.07c6.07,1.5,9.61,7.26,15.08,9.79c3.87,1.2,6.19-2.75,8.12-5.36
			c2.03-2.84,4.61-6.65,8.67-5.72c8.58,1.64,15.92,6.75,23.36,11.05c4.53-2.62,3.43-9.55,8.06-12.06c3.51-1.28,5.66,2.44,8.17,4.12
			c2.41,2.04,5.89,0.83,8.34-0.56C553.07,212.51,559.76,202.71,567.06,194z M581.52,292.69c-7.3,0.11-14.61-0.25-21.9,0.21
			c5.56,4.73,11.41,9.14,17.23,13.55c-1.61,7.37-4.8,14.28-6.59,21.59c6.25-4.22,12.58-8.34,18.8-12.61
			c6.24,4.11,12.39,8.34,18.59,12.51c-1.68-7.21-4.45-14.11-6.55-21.2c5.85-4.69,11.76-9.3,17.64-13.95
			c-7.4-0.22-14.8-0.04-22.2-0.11c-2.59-7.03-4.78-14.2-7.4-21.22C586.17,278.37,584.21,285.67,581.52,292.69z"/>
	</g>
	<path class="st1" d="M201.29,189.01c13.07,22.98,25.23,46.48,38.03,69.61c0.89,1.72,2.01,3.36,2.48,5.26
		c-3.29,4.09-7.16,7.69-10.56,11.7c-26-11.59-52.18-22.76-78.14-34.44c4.03-4.33,8.34-8.42,12.01-13.07
		c2.84,0.12,5.14,1.93,7.61,3.13c16.16,8.06,32.22,16.31,48.36,24.42c-9.73-16.42-19.71-32.69-29.56-49.03
		c-0.71-1.5-2.3-2.81-2.13-4.58C193.27,197.6,197.52,193.52,201.29,189.01z"/>
	<path class="st1" d="M315.12,211.75c4.6-3.2,9.34-6.4,14.49-8.64c2.63,4.77,5.57,9.35,8.35,14.02c-4.77,2.8-9.49,5.69-14.17,8.64
		C320.8,221.16,318.12,216.35,315.12,211.75z"/>
	<path class="st1" d="M790.13,270.07c21.33-16.23,42.59-32.57,63.9-48.85c3.36,4.55,7.15,8.78,10.12,13.6
		c-7.82,5.74-15.34,11.89-23.21,17.57c1.05,3.15,3.62,5.43,5.47,8.12c4.87,6.07,9.23,12.57,14.4,18.4
		c7.61-6.2,15.58-11.95,23.3-18.01c3.85,4.1,6.87,8.89,10.48,13.21c-21.16,16.43-42.61,32.48-63.75,48.94
		c-3.95-4.04-6.89-8.93-10.6-13.18c9.37-7.4,18.99-14.48,28.38-21.85c-6.15-7.75-12.07-15.67-18.07-23.52
		c-0.78-0.77-1.25-2.25-2.55-2.09c-9.3,7-18.41,14.29-27.82,21.15C796.91,279,793.25,274.74,790.13,270.07z"/>
	<path class="st1" d="M121.83,300.79c6.87-2.54,14.4-1.26,21.15,1.04c-1.43,5.31-4.53,9.98-6.84,14.93
		c-4.35-0.57-9.29-1.44-13.15,1.23c-5.95,4.05-9.18,11.21-10.16,18.17c-0.57,8.39,5.5,15.51,12.35,19.55
		c8.14,5.27,18.04,8.82,27.78,6.52c8.15-2.64,13.01-11.02,14.15-19.12c0.54-6.03-3.2-11.38-7.74-14.94
		c2.35-4.7,4.82-9.35,6.93-14.16c4.88,1.31,8.39,5.53,11.34,9.4c7.04,10.51,5.81,24.54,0.21,35.39
		c-4.4,9.34-12.22,17.78-22.57,20.22c-11.16,2.98-22.94-0.21-32.98-5.32c-9.15-4.58-17.92-11.2-22.27-20.73
		c-4.51-9.46-3.3-20.74,0.97-30.05C105.02,313.47,111.74,304.2,121.83,300.79z"/>
	<path class="st1" d="M941.25,304.28c0.27-0.02,0.82-0.05,1.09-0.07c1.91,3.95,3.7,7.96,5.58,11.92
		c-4.59,6.19-9.16,12.4-13.83,18.53c-1.1-3.15-4.3-6.46-2.2-9.88C935.1,317.99,938.05,311.07,941.25,304.28z"/>
	<g>
		<path class="st1" d="M835.05,328.93c28.36-2.58,56.67-5.64,85.01-8.37c2.26,5.96,5.86,11.36,7.84,17.42
			c-9.24,9.71-18.94,19.01-28.37,28.56c-9.55,10.1-19.63,19.68-29.33,29.65c-0.78,0.88-1.75,1.56-2.92,1.79
			c-2.14-5.16-4.72-10.11-7.1-15.15c4.08-4.09,8.26-8.07,12.59-11.9c-4.34-9.51-8.67-19.04-13.49-28.32
			c-5.67,0.92-11.35,1.86-17.08,2.21C839.96,339.45,836.89,334.45,835.05,328.93z M874.05,340.71c2.79,6.8,6.08,13.38,9.38,19.94
			c8.45-8.14,17.08-16.09,25.51-24.26C897.31,337.78,885.71,339.5,874.05,340.71z"/>
	</g>
	<path class="st1" d="M931.95,390.79c5.37-1.2,10.65-2.88,16.12-3.61c1.24,5.64,2.76,11.21,3.8,16.9
		c-15.2,14.79-30.69,29.3-45.81,44.18c17.7-4.45,35.54-8.33,53.26-12.74c1.34,5.39,2.84,10.76,3.65,16.26
		c-15.02,3.35-29.95,7.05-44.94,10.51c-11.16,2.36-22.12,5.69-33.36,7.6c-1.18-5.64-2.73-11.19-3.66-16.88
		c15.24-14.42,30.24-29.09,45.3-43.69c-10.16,1.66-20.03,4.75-30.1,6.86c-7.59,1.7-15.16,3.47-22.68,5.44
		c-1.42-5.36-3.13-10.73-3.49-16.29C890.68,400.51,911.3,395.58,931.95,390.79z"/>
	<g>
		<path class="st1" d="M99.54,388.91c10.91-0.77,22.03,1.82,31.68,6.9c10.36,5.62,18.16,16.25,19.03,28.17
			c0.63,10.06-1.69,20.49-7.2,29c-5.51,8.61-15.18,14-25.17,15.4c-11.52,1.3-23.32-1.31-33.54-6.68
			c-9.27-4.93-16.43-13.91-18.58-24.25c-1.75-11.32,0.45-23.34,6.76-32.98C78.39,395.32,88.86,389.89,99.54,388.91z M98.08,405.97
			c-7.8,0.95-14.73,6.58-16.84,14.21c-1.74,6.5-2.02,14.41,2.72,19.78c5.33,6.7,13.83,9.65,21.96,11.2
			c7.04,1.15,14.82,0.85,20.88-3.34c6.87-4.79,9.47-13.93,8.51-21.94c-1.32-8.32-8.59-14.28-16.11-17.08
			C112.46,406.5,105.21,404.83,98.08,405.97z"/>
	</g>
	<path class="st1" d="M512.18,393.15c4.97-0.28,9.77,1.93,13.23,5.43c37.51,37.52,75.01,75.05,112.55,112.53
		c7.22,6.5,7.98,18.85,0.94,25.75c-38.17,38.19-76.35,76.38-114.54,114.54c-6.59,6.33-18.06,6.22-24.47-0.29
		c-38.18-38.18-76.38-76.33-114.52-114.54c-6.49-6.66-6.16-18.22,0.5-24.64c37.68-37.72,75.4-75.4,113.09-113.11
		C502.36,395.21,507.13,392.82,512.18,393.15z"/>
	<path class="st1" d="M154.01,431.11c5.65,0.41,11.1,2.11,16.57,3.46c-1.4,5.37-2.49,10.81-4.07,16.13
		c-5.3-1.64-10.87-2.26-16.1-4.11C151.74,441.47,153.22,436.36,154.01,431.11z"/>
	<path class="st1" d="M895.35,493.37c8-8.09,19.57-11.47,30.71-11.78s22.99,2.19,31.6,9.68c6.79,5.6,10.94,13.99,11.84,22.69
		c0.94,10.09-0.08,20.96-6.01,29.5c-4.57,6.99-12.46,11.51-20.74,12.26c0.01-5.61-0.01-11.22,0.02-16.82
		c4.21-1.29,8.33-3.69,10.41-7.74c3.16-6.54,3.24-14.69-0.27-21.12c-3.62-6.34-10.89-9.61-17.87-10.53
		c-9.03-1.39-19.02-0.51-26.75,4.72c-8.93,5.92-11.01,19.17-5.51,28.07c3.15,4.97,8.72,7.99,14.5,8.67c0.39-6.11-1-12.21-0.01-18.28
		c4.5,0.11,9.01-0.01,13.51-0.1c0.54,11.2,0.39,22.42,0.57,33.63c-14.57,0.03-29.15,0.24-43.72,0.34c0-3.67,0.02-7.35-0.05-11.01
		c2.97-0.9,6.03-1.5,9.06-2.17c-5.11-4.14-9.37-9.62-10.79-16.16C883.29,515.36,886.26,501.8,895.35,493.37z"/>
	<path class="st1" d="M835.88,489.08c1.31-4.66,9-5.44,11.07-1.03c0.99,1.9,0.07,4.2-0.84,5.97c-1.44,1.73-3.91,1.75-5.88,2.45
		c-0.59,2.16-1.59,4.17-2.93,5.96c-0.66,0.13-1.98,0.39-2.65,0.52C835.93,498.4,834.44,493.57,835.88,489.08z"/>
	<path class="st1" d="M56.58,487.27c26.66,0.24,53.34,0.4,80,0.45c1.2,5.53,0.33,11.29,0.5,16.92c-11.85,0.17-23.69-0.31-35.54-0.19
		c-0.46,11.01-0.16,22.04-0.21,33.06c11.82-0.09,23.64,0.21,35.46,0.15c-0.13,5.59-0.34,11.18-0.23,16.78
		c-18.53,0.1-37.06-0.22-55.59-0.14c-8.2-0.89-16.45-0.39-24.67-0.52c0.01-5.48,0.01-10.96,0-16.43
		c10.01-0.03,20.02,0.02,30.02-0.04c0.04-11-0.02-22,0.22-33c-10.02-0.08-20.03-0.03-30.05-0.03
		C56.36,498.61,56.69,492.94,56.58,487.27z"/>
	<path class="st1" d="M848.15,501.14c1.4-2,2.42-4.78,5.28-4.88c-0.31,2.59,0.42,5.02,2.37,6.79c-0.53,0.14-1.6,0.42-2.13,0.56
		c-1.17,2.34-1.06,4.99-1.23,7.53c-2.53,1.64-5.47,2.76-8.52,2.28c-0.36-0.6-1.07-1.81-1.43-2.41
		C843.91,507.47,846.09,504.33,848.15,501.14z"/>
	<path class="st1" d="M820.21,508.81c1.69-3.14-3.43-5.33-1.66-8.63c2.29,1.11,4.64,2.1,7.04,2.98c0.15,3.15,1.47,6.12,1.72,9.24
		c-0.99,3-4.2,4.5-5.37,7.44c-0.88,2.93-4.34,1.72-6.56,1.75C815.53,516.88,818.4,512.98,820.21,508.81z"/>
	<path class="st1" d="M835.23,513.66c1.31-0.64,2.68-1.05,4.14-1.24c1.67,1.72,1.02,4.2,0.1,6.13c0.6,0.7,1.21,1.41,1.81,2.12
		c-2.01,0.18-4.02,0.08-5.98-0.33C835.22,518.11,835.21,515.88,835.23,513.66z"/>
	<path class="st1" d="M262.92,644.79c23.14-6.58,47.02-11.09,71.11-11.56c41.26-0.13,81.52,12.92,117.73,32.01
		c20.75,10.9,40.36,23.88,59,38.05c0.96,0.91,2.44,0.69,3.32-0.21c31.31-23.85,65.63-44.3,102.99-57.08
		c19.35-6.61,39.51-10.93,59.93-12.38c34.98-2.06,69.66,5.97,102.74,16.65c33.45,10.68,65.88,24.72,100.19,32.6
		c-4.52,10.27-9.72,20.23-15.08,30.07c-0.9,1.92-3.36,0.48-4.87,0.41c-27.19-7.45-53.46-17.78-80.1-26.92
		c-27.79-9.41-56.43-17.49-85.9-18.79c-31.39-0.84-62.27,8.04-90.58,21.07c-33.2,15.21-63.37,36.26-91.17,59.78
		c-31.08-26.47-65.23-50.01-103.36-65.08c-29.65-11.63-61.97-18.73-93.86-14.47c-42.99,5.21-83.03,22.63-123.77,36.24
		c-10.1,3.4-20.33,6.37-30.56,9.33c-5.99-10.22-11.19-20.87-16.17-31.6C185.01,673.54,222.92,655.84,262.92,644.79z"/>
	<path class="st1" d="M672.4,677.47c28.21-3.45,56.38,3.05,83.41,10.58c-0.34,12.38-1.69,24.72-3.63,36.94
		c-2.97,9.63-10.76,16.76-18.57,22.66c-7.12,5.51-15.38,9.19-23.03,13.84c-14.94,8.96-29.53,18.47-44.34,27.63
		c-4,2.15-7.67,5.29-12.17,6.28c-3.52,0.87-5.74-2.22-8.24-4.01c-2.09-0.99-3.69,0.82-4.46,2.54c1.1,1.67,2.81,3.13,3.12,5.21
		c-1.59,2.48-4.55,4.02-5.33,7.02c-1.15,3.41-0.14,7.67-3.06,10.35c-2.26,0.77-4.45-0.38-6.45-1.28c0.12,3.27,0.35,6.57,0,9.84
		c-0.36,2.76-2.63,5.66-5.66,5.45c-4.73-0.14-8.16-4.09-11.42-7c1.31,4.32,2.7,9.24,0.62,13.58c-2.12,3.03-5.89,4.18-9.11,5.67
		c-10.82,4.23-21.82,9.65-28.88,19.26c-6.61,8.63-17.88,13.18-28.63,11.21c-0.02-0.79-0.04-1.57-0.05-2.34
		c2.2-1.11,6.01-0.82,6.58-3.79c-1.63-1.06-4.71-1.56-4.51-4.04c0.13-13.41,3.52-26.56,4.17-39.94c1.03-6.21,7.19-9.16,11.18-13.26
		c-0.05-0.33-0.16-0.99-0.22-1.32c-6.54-3.34-12.57-7.72-19.62-9.99c-4.46-1.64-9.3-4.72-10.04-9.82
		c7.09-3.35,15.34-2.77,22.61-5.66c7.28-3.25,9.85-12.19,17.33-15.11c6.61-3.12,14.29-2.96,21.1-0.54c5.05,1.15,9.45,4.13,14.43,5.4
		c-0.28-10.56-9.48-18.3-10.17-28.8c-0.16-3.79-0.66-8.4,2.62-11.1c4.24-3.88,10.31-4.08,15.71-3.49c2.71-2.03,4.15-5.57,7.39-6.91
		c10.28-3.88,20.46-8.03,30.78-11.82c6.2-2.02,11.21-6.72,14.89-11.95C672.31,691.82,671.6,684.53,672.4,677.47z"/>
	<path class="st1" d="M857.97,740.09c0.85-1.86,3.41-2.48,4.98-1.14c1.87,1.65,4.24,3.84,3.57,6.63c-0.65,1.81-2.03,3.34-3.56,4.48
		c-2.12,0.43-4.29,0.49-6.42,0.68c0-0.96-0.01-2.88-0.01-3.84c0.51-0.48,1.54-1.44,2.06-1.92
		C858.19,743.43,856.48,741.55,857.97,740.09z"/>
	<path class="st1" d="M844.08,743.03c0.87-0.95,2.18-0.52,3.31-0.54c1.21,3.85,1.27,7.91,0.98,11.92c-3,3.95-8.06,5.83-12.92,5.09
		c0.05-2.33-0.5-4.95,0.92-6.99C838.57,749.09,840.98,745.7,844.08,743.03z"/>
	<path class="st1" d="M745.92,757.76c1.17-0.28,2.37-0.37,3.58-0.49c0.35,2.76,0.39,5.56,0.28,8.35c-1.85-0.01-3.76,0.01-5.18-1.33
		C744.96,762.12,743.87,759.29,745.92,757.76z"/>
	<path class="st1" d="M848.02,762.94c1.04-1.52,2.79-2.2,4.43-2.88c0.04,1.75,0.07,3.51,0.08,5.28c-0.51,0.49-1.53,1.48-2.03,1.98
		c1.32,1.56,3.76,3.17,2.62,5.57c-2.18,3.53-6.78,4.2-10.55,3.51C840.79,771.02,845.1,766.84,848.02,762.94z"/>
	<path class="st1" d="M816.67,760.66c1.62-0.16,3.24-0.3,4.88-0.41c0.22,2.71-0.98,5.82,1.02,8.13c-2.16,0.11-4.39,0.23-6.24-1.06
		C816.39,765.09,816.48,762.87,816.67,760.66z"/>
	<path class="st1" d="M749.57,769.85c1.25-1.96,2.88-3.61,4.32-5.42c2.32-0.26,4.22,0.92,5.93,2.35c-1.81,3.11-3.92,6.15-6.9,8.25
		C751.68,773.43,749.41,772.12,749.57,769.85z"/>
	<g>
		<path class="st1" d="M151.09,812.86c13.22-12.11,26.98-23.62,40.16-35.77c6.04,6.24,11.57,12.95,17.37,19.41
			c3.84,4.35,7.24,10.69,4.45,16.47c-2.76,5.47-9.56,10.47-15.78,7.52c0.19,3.36,0.79,7.01-1.03,10.07
			c-3.43,5.98-10.87,10.32-17.79,8.17c-6.28-1.69-10.6-6.88-14.62-11.64C159.52,822.41,155.55,817.42,151.09,812.86z M183.1,798.91
			c4.04,4,7.02,9.13,11.79,12.33c3.03,1.68,5.96-0.73,7.73-3.04c-0.1-1.9-0.14-3.9-1.43-5.42c-2.9-3.86-6.42-7.21-9.39-11.03
			C188.54,793.67,185.9,796.41,183.1,798.91z M166.46,813.63c-0.06,0.27-0.18,0.83-0.24,1.11c3.44,3.88,6.67,8.04,10.54,11.51
			c4.21,3.98,11.88-0.66,10.86-6.14c-0.26-2.19-1.91-3.87-3.21-5.52c-2.86-3.09-5.58-6.3-8.36-9.46
			C172.94,808.06,169.49,810.61,166.46,813.63z"/>
	</g>
	<path class="st1" d="M823.4,781.33c0.22-0.03,0.65-0.09,0.86-0.12c4.36,11.55,8.23,23.3,12.69,34.81
		c4.6,4.99,9.95,9.22,14.86,13.92c-2.55,2.75-5.09,5.5-7.73,8.17c-4.4-4-8.88-7.92-13.16-12.06c-1.36-1.6-3.49-1.86-5.4-2.3
		c-11.27-2.36-22.51-4.83-33.72-7.42c2.08-3.94,5.91-6.54,8.56-10.07c8.34,1.7,16.27,5.06,24.64,6.68
		c-3.18-7.68-6.35-15.35-9.68-22.96C818.07,787.15,820.59,784.1,823.4,781.33z"/>
	<path class="st1" d="M494.77,797.8c-1.16-5.22,4.54-11.08,9.77-9.13c2.28,1.14,2.59,3.92,3.97,5.84c1.69,1.77,3.91,3.09,4.94,5.44
		c-1.79,6.7-5.27,12.85-9.26,18.48c-0.71,1.49-2.23,1.28-3.58,1.09c-0.26-4.09,1.52-9.07-1.88-12.28
		C499.97,803.17,495.32,801.4,494.77,797.8z"/>
	<path class="st1" d="M784.47,822.46c1.55-1.31,2.94-3,5.03-3.42c7.41,9.32,15.22,18.33,22.82,27.51c3.42,4.53,7.72,8.5,10.67,13.33
		c-1.87,2.77-5.05,4.41-7.36,6.82c-5.61-5.88-10.47-12.44-15.8-18.57c-3.56-4.36-7.4-8.51-10.64-13.12
		c1.64,6.03,5.18,11.33,7.66,17.03c3.18,7.37,7.4,14.3,10.11,21.86c-2.91,2.11-5.45,4.69-8.35,6.81c-4.34-2.11-7.94-5.68-12.03-8.31
		c-7.74-5.43-15.19-11.3-23.13-16.43c8.91,10.49,17.58,21.19,26.56,31.63c-1.89,2.23-4.34,3.88-6.54,5.78
		c-0.95,0.99-2.57,0.46-3.12-0.66c-10.54-12.77-21.24-25.41-31.77-38.18c-1.43-1.39,0.48-2.62,1.46-3.44
		c3.25-2.43,6.11-5.34,9.41-7.68c1.15-0.69,2.2,0.38,3.11,0.97c10.42,7.52,20.92,14.93,31.36,22.43
		c-4.77-10.95-10.17-21.62-15.24-32.43c-0.59-1.78-2.4-3.45-1.97-5.35C779.15,826.68,781.94,824.72,784.47,822.46z"/>
	<g>
		<path class="st1" d="M187.32,851.61c16.31-9.08,32.71-18.02,48.95-27.23c3.33,2.79,6.65,5.59,9.8,8.58
			c-6.98,17.69-14.04,35.34-20.94,53.05c-3.08-2.47-6.09-5.02-8.93-7.75c1.46-3.54,2.97-7.06,4.54-10.55
			c-5.05-4.45-9.97-9.07-15.19-13.3c-3.73,0.7-6.76,4.23-10.52,5.45c-2.46-2.55-5.29-4.71-7.83-7.16
			C187.23,852.43,187.29,851.88,187.32,851.61z M214.03,848.94c3.06,3.69,7.09,6.45,10.62,9.69c2.82-7.21,6.27-14.17,9.03-21.4
			C227.13,841.13,220.46,844.85,214.03,848.94z"/>
	</g>
	<path class="st1" d="M264.01,848.26c3.31,1.94,6.4,4.24,9.65,6.29c-0.41,14.12-1.97,28.18-2.25,42.3
		c6.61-9.97,13.44-19.81,20.04-29.79c3.44,1.48,6.29,3.95,9.42,5.96c-9.92,14.89-20.1,29.61-29.99,44.53
		c-3.24-1.98-6.35-4.15-9.54-6.19c0.33-14.13,1.9-28.21,2.09-42.33c-6.68,9.97-13.5,19.85-20.12,29.87c-3.21-1.8-6.1-4.09-9.24-5.99
		C243.75,877.84,254.13,863.21,264.01,848.26z"/>
	<path class="st1" d="M635.45,850.11c4.24,0.51,6.86,4.07,9.6,6.93c1.09,1.14,1.17,3.64-0.57,4.25c-4.78,2.17-9.83,3.67-14.78,5.39
		c-0.95-1.07-1.12-2.23-0.51-3.47C630.99,858.71,633.31,854.45,635.45,850.11z"/>
	<path class="st1" d="M707.14,878.7c11.13-6.86,22.03-14.15,33.38-20.62c1.68,2.59,3.33,5.21,4.75,7.97
		c-7.7,4.87-15.4,9.76-23.21,14.45c0.99,3.5,3.62,6.2,5.22,9.44c7.71-3.38,14.31-9,21.8-12.89c2.37,2.03,3.53,5.16,5.07,7.84
		c-7.14,4.33-14.15,8.88-21.31,13.17c1.87,4.15,4.65,7.8,6.97,11.71c8.15-5.23,16.52-10.13,24.57-15.53
		c2.09,2.75,4.05,5.65,5.44,8.83c-8.88,5.28-17.55,10.91-26.33,16.34c-2.65,1.57-5.09,3.54-8.02,4.59
		C726.1,908.86,716.7,893.73,707.14,878.7z"/>
	<path class="st1" d="M309.23,878.08c3.53,1.34,6.78,3.31,10.21,4.87c-3.13,6.37-6.44,12.65-9.49,19.07
		c9.54-2.65,18.64-6.73,28.08-9.69c3.94,2.17,8.62,3.49,11.92,6.59c-9.56,2.92-18.98,6.28-28.4,9.62c2.3,12.94,4.4,25.92,6.45,38.91
		c-4.05-2.11-8.23-3.98-12.21-6.22c-1.2-9.78-3.07-19.47-4.46-29.23c-2.53,0.5-5,1.2-7.45,1.99c-2.72,5.65-5.64,11.22-8.37,16.87
		c-3.52-1.32-6.77-3.22-10.17-4.79C293.02,909.94,301.39,894.14,309.23,878.08z"/>
	<g>
		<path class="st1" d="M678.67,892.68c5.94-2.68,13-4.21,19.21-1.51c7.37,3.03,11.69,10.28,14.82,17.22
			c3.3,7.52,4.33,16.86-0.35,24.04c-4.73,7.1-13.15,9.98-20.52,13.46c-3.41,1.39-6.54,3.66-10.28,4.1
			c-7.32-16.15-14.88-32.18-22.28-48.28C665.69,898.61,672.24,895.77,678.67,892.68z M673.34,905.83
			c4.8,10.34,9.56,20.71,14.39,31.05c5.18-2.63,11.53-4.2,14.99-9.22c3.15-4.49,1.35-10.24-0.62-14.8
			c-2.29-4.89-5.08-10.43-10.51-12.36C684.91,898.8,679.22,903.55,673.34,905.83z"/>
	</g>
	<path class="st1" d="M356.85,900.37c3.35,1.25,6.65,2.65,10.06,3.76c-0.09,1.02-0.28,2.02-0.57,3.01
		c-6.07,15.8-12.4,31.5-18.32,47.35c-3.62-1.2-7.19-2.58-10.67-4.14C343.99,933.75,350.44,917.06,356.85,900.37z"/>
	<path class="st1" d="M377.73,908.94c3.81,0.8,7.51,2.02,11.28,2.96c3.85,13.41,6.63,27.16,11.1,40.37
		c3.03-11.48,6.58-22.82,9.57-34.31c3.64,0.76,7.21,1.83,10.8,2.84c-4.82,17.23-9.84,34.42-14.46,51.71
		c-3.84-0.86-7.58-2.05-11.34-3.18c-3.38-13.51-7.38-26.86-10.67-40.39c-4.34,11.27-6.33,23.32-10.41,34.68
		c-3.44-1.2-6.98-2.08-10.43-3.21C368.1,943.28,372.8,926.08,377.73,908.94z"/>
	<g>
		<path class="st1" d="M624.51,913.31c4.11-1.42,8.26-2.75,12.46-3.9c11.22,15.32,23.3,30.02,34.25,45.52
			c-3.75,1.12-7.4,2.61-11.3,3.14c-2.09-2.99-4.26-5.93-6.33-8.92c-6.74,1.78-13.47,3.75-19.97,6.27c0.05,3.88,0.42,7.82-0.26,11.69
			c-3.73,0.64-7.28,1.98-10.85,3.18c-0.11-6.11,0.36-12.18,0.77-18.26C623.25,939.11,624.2,926.22,624.51,913.31z M633.73,945.11
			c4.77-0.88,9.31-2.64,13.95-4.01c-4.39-6.42-9.19-12.55-13.37-19.1C634.22,929.7,633.63,937.39,633.73,945.11z"/>
	</g>
	<path class="st1" d="M576.99,923.03c6.1-1.77,12.88-2.52,18.92-0.11c5.94,2.23,10.37,7.92,11.17,14.21
		c-3.55,0.54-7.07,1.27-10.64,1.69c-1.42-3.6-4.42-6.87-8.46-7.22c-5.52-0.46-11.83,1.58-14.78,6.57
		c-2.44,4.11-2.12,9.12-1.51,13.69c1,5.42,3.02,11.26,7.85,14.43c4.64,2.98,10.77,2.13,15.32-0.59c3.4-2.01,4.57-6.14,4.87-9.83
		c3.57-0.56,7.12-1.29,10.71-1.8c0.72,6.54-1.4,13.49-6.5,17.83c-6.56,5.42-15.61,7.48-23.94,6.2c-8.4-1.42-14.83-8.41-17.49-16.23
		c-2.74-8.32-3.97-17.66-0.69-26.02C564.42,929.43,570.43,924.87,576.99,923.03z"/>
	<path class="st1" d="M436.57,927.64c8.23-5.01,18.9-3.86,27.24,0.29c6.66,3.35,10.88,10.52,10.89,17.95
		c-3.76-0.29-7.48-0.84-11.19-1.4c-1.16-10.59-16.76-13.83-23.05-5.97c-4.22,5.1-5.49,12.09-5.12,18.55
		c0.27,6.01,4.12,12.12,10.23,13.54c6.76,2.58,15.07-1.92,16.45-9.04c-3.86-0.66-7.73-1.23-11.64-1.41c0.14-3.23,0.62-6.42,1.2-9.58
		c7.31,1.22,14.67,2.07,22.02,3.06c-1.28,9.67-2.53,19.36-4.04,28.99c-2.42-0.31-4.81-0.68-7.2-1.15c-0.18-2.01-0.46-4.01-0.74-5.99
		c-9.12,9.14-25.87,6.07-32.96-4.14c-6.18-8.46-6.13-19.89-3.01-29.51C427.66,936.13,431.21,930.68,436.57,927.64z"/>
	<g>
		<path class="st1" d="M521.83,929.59c4.29-0.08,8.58-0.3,12.87-0.3c7.17,17.49,14.44,34.93,21.68,52.39
			c-3.86,0.62-7.77,0.74-11.67,0.8c-1.44-3.62-2.8-7.26-4.28-10.86c-6.85,0.24-13.68,0.8-20.53,1.05c-0.97,3.61-2.01,7.2-2.8,10.86
			c-3.98,0.29-7.95,0.7-11.94,0.8C510.65,966.06,516.14,947.79,521.83,929.59z M528.84,940.87c-2.43,7.4-4.33,14.96-6.31,22.49
			c4.81-0.38,9.63-0.61,14.45-0.85C534.33,955.27,531.48,948.11,528.84,940.87z"/>
	</g>
</g>
</svg>
