<svg xmlns="http://www.w3.org/2000/svg" xmlns:xlink="http://www.w3.org/1999/xlink" width="1024" zoomAndPan="magnify" viewBox="0 0 768 576" height="768" preserveAspectRatio="xMidYMid meet" version="1.2"><defs><clipPath id="3799d12972"><path d="M 202 71.9375 L 572.914062 71.9375 L 572.914062 320 L 202 320 Z M 202 71.9375 "/></clipPath><clipPath id="6fc6f8eda9"><path d="M 194.914062 266 L 566 266 L 566 417 L 194.914062 417 Z M 194.914062 266 "/></clipPath><clipPath id="4ab4f71039"><path d="M 389 420 L 452 420 L 452 503.9375 L 389 503.9375 Z M 389 420 "/></clipPath><clipPath id="8d34288c49"><path d="M 316 420 L 379 420 L 379 503.9375 L 316 503.9375 Z M 316 420 "/></clipPath></defs><g id="077856f298"><path style=" stroke:none;fill-rule:nonzero;fill:#ff914d;fill-opacity:1;" d="M 475.160156 293.167969 C 475.160156 306.8125 464.09375 317.90625 450.421875 317.90625 C 436.75 317.90625 425.683594 306.839844 425.683594 293.167969 C 425.683594 279.496094 436.75 268.429688 450.421875 268.429688 C 464.09375 268.429688 475.160156 279.496094 475.160156 293.167969 Z M 475.160156 293.167969 "/><path style=" stroke:none;fill-rule:nonzero;fill:#ff914d;fill-opacity:1;" d="M 317.429688 268.429688 C 331.074219 268.429688 342.167969 279.496094 342.167969 293.167969 C 342.167969 306.8125 331.101562 317.90625 317.429688 317.90625 C 303.757812 317.90625 292.691406 306.8125 292.691406 293.167969 C 292.691406 279.496094 303.757812 268.429688 317.429688 268.429688 Z M 317.429688 268.429688 "/><g clip-rule="nonzero" clip-path="url(#3799d12972)"><path style=" stroke:none;fill-rule:nonzero;fill:#ff914d;fill-opacity:1;" d="M 533.609375 319.515625 L 572.785156 319.515625 C 572.8125 318.644531 572.914062 317.804688 572.914062 316.960938 L 572.914062 269.347656 C 572.914062 214.53125 528.316406 169.933594 473.5 169.933594 L 392.769531 169.933594 L 392.769531 127.332031 C 404.117188 123.578125 412.371094 113.023438 412.371094 100.421875 C 412.371094 84.707031 399.617188 71.953125 383.902344 71.953125 C 368.183594 71.953125 355.429688 84.707031 355.429688 100.421875 C 355.429688 113.023438 363.6875 123.601562 375.03125 127.332031 L 375.03125 169.960938 L 294.328125 169.960938 C 252.898438 169.960938 217.351562 195.464844 202.425781 231.550781 L 247.535156 231.550781 C 258.574219 217.902344 275.441406 209.136719 294.328125 209.136719 L 473.527344 209.136719 C 506.722656 209.136719 533.734375 236.152344 533.734375 269.347656 L 533.734375 316.960938 C 533.734375 317.828125 533.632812 318.671875 533.609375 319.515625 Z M 381.472656 88.15625 C 381.472656 92.601562 377.871094 96.207031 373.421875 96.207031 C 368.976562 96.207031 365.371094 92.601562 365.371094 88.15625 C 365.371094 83.710938 368.976562 80.105469 373.421875 80.105469 C 377.871094 80.105469 381.472656 83.734375 381.472656 88.15625 Z M 381.472656 88.15625 "/></g><g clip-rule="nonzero" clip-path="url(#6fc6f8eda9)"><path style=" stroke:none;fill-rule:nonzero;fill:#ff914d;fill-opacity:1;" d="M 195.066406 266.792969 L 234.269531 266.792969 C 234.246094 267.660156 234.140625 268.503906 234.140625 269.347656 L 234.140625 316.960938 C 234.140625 350.15625 261.15625 377.167969 294.351562 377.167969 L 473.550781 377.167969 C 492.4375 377.167969 509.304688 368.402344 520.34375 354.757812 L 565.449219 354.757812 C 550.550781 390.867188 514.976562 416.347656 473.550781 416.347656 L 294.328125 416.347656 C 239.507812 416.347656 194.914062 371.75 194.914062 316.933594 L 194.914062 269.347656 C 194.914062 268.480469 195.042969 267.636719 195.066406 266.792969 Z M 195.066406 266.792969 "/></g><g clip-rule="nonzero" clip-path="url(#4ab4f71039)"><path style=" stroke:none;fill-rule:nonzero;fill:#ff914d;fill-opacity:1;" d="M 451.011719 430.480469 L 451.011719 493.707031 L 439.410156 503.851562 L 389.675781 472.339844 L 389.675781 451.820312 L 439.410156 420.308594 Z M 451.011719 430.480469 "/></g><g clip-rule="nonzero" clip-path="url(#8d34288c49)"><path style=" stroke:none;fill-rule:nonzero;fill:#ff914d;fill-opacity:1;" d="M 378.175781 451.820312 L 378.175781 472.339844 L 328.445312 503.851562 L 316.839844 493.707031 L 316.839844 430.480469 L 328.445312 420.308594 Z M 378.175781 451.820312 "/></g><path style=" stroke:none;fill-rule:nonzero;fill:#ff914d;fill-opacity:1;" d="M 379.835938 452.050781 L 388.015625 452.050781 L 388.015625 472.109375 L 379.835938 472.109375 Z M 379.835938 452.050781 "/></g></svg>